<svg xmlns="http://www.w3.org/2000/svg" viewBox="0 0 512 512" style="background: red"><g><path fill="#333" stroke="#fff" stroke-width="10" d="M128,0C92.9,0,64,28.9,64,64c0,27.6,18,51.1,42.7,60v264C82,396.9,64,420.4,64,448c0,35.1,28.9,64,64,64s64-28.9,64-64 c0-27.1-17.4-50-41.3-59.3c3.1-26.3,13.3-39.2,29.3-50c19.2-12.9,48.6-20.6,80.7-28c32.1-7.4,66.5-15.1,95.3-35.3 c25.3-17.8,44.5-46.8,48.7-87.3c25-8.8,43.3-32.3,43.3-60c0-35.1-28.9-64-64-64s-64,28.9-64,64c0,27.3,17.8,50.2,42,59.3 c-2.9,28-13.8,41.9-30,53.3c-19.2,13.4-48.8,21.3-80.7,28.7c-31.9,7.3-66.5,13.8-95.3,33.3c-2.3,1.6-4.5,3.6-6.7,5.3V124 C174,115.1,192,91.6,192,64C192,28.9,163.1,0,128,0z M128,42.7c12,0,21.3,9.3,21.3,21.3S140,85.3,128,85.3S106.7,76,106.7,64 S116,42.7,128,42.7z M384,106.7c12,0,21.3,9.3,21.3,21.3s-9.3,21.3-21.3,21.3s-21.3-9.3-21.3-21.3S372,106.7,384,106.7z M128,426.7 c12,0,21.3,9.3,21.3,21.3s-9.3,21.3-21.3,21.3s-21.3-9.3-21.3-21.3S116,426.7,128,426.7z"/></g></svg>
